<svg width="68" height="68" viewBox="0 0 68 68" fill="none" xmlns="http://www.w3.org/2000/svg">
<path d="M14.0458 58.9925C12.5008 58.9925 11.1786 58.4428 10.0793 57.3435C8.97997 56.2442 8.42937 54.9211 8.4275 53.3742V14.0458C8.4275 12.5008 8.97809 11.1786 10.0793 10.0793C11.1805 8.97997 12.5027 8.42937 14.0458 8.4275H25.2825C26.8275 8.4275 28.1507 8.97809 29.2518 10.0793C30.353 11.1805 30.9027 12.5027 30.9008 14.0458V53.3742C30.9008 54.9192 30.3512 56.2423 29.2518 57.3435C28.1525 58.4447 26.8294 58.9944 25.2825 58.9925H14.0458ZM42.1375 58.9925C40.5925 58.9925 39.2703 58.4428 38.171 57.3435C37.0716 56.2442 36.521 54.9211 36.5192 53.3742V39.3283C36.5192 37.7833 37.0698 36.4611 38.171 35.3618C39.2721 34.2625 40.5943 33.7119 42.1375 33.71H53.3742C54.9192 33.71 56.2423 34.2606 57.3435 35.3618C58.4447 36.463 58.9944 37.7852 58.9925 39.3283V53.3742C58.9925 54.9192 58.4428 56.2423 57.3435 57.3435C56.2442 58.4447 54.9211 58.9944 53.3742 58.9925H42.1375ZM42.1375 28.0917C40.5925 28.0917 39.2703 27.542 38.171 26.4427C37.0716 25.3434 36.521 24.0202 36.5192 22.4733V14.0458C36.5192 12.5008 37.0698 11.1786 38.171 10.0793C39.2721 8.97997 40.5943 8.42937 42.1375 8.4275H53.3742C54.9192 8.4275 56.2423 8.97809 57.3435 10.0793C58.4447 11.1805 58.9944 12.5027 58.9925 14.0458V22.4733C58.9925 24.0184 58.4428 25.3415 57.3435 26.4427C56.2442 27.5439 54.9211 28.0935 53.3742 28.0917H42.1375Z" fill="#FF7C00"/>
</svg>