<svg width="50" height="50" viewBox="0 0 50 50" fill="none" xmlns="http://www.w3.org/2000/svg">
<path d="M22.9167 41.6667C22.3264 41.6667 21.8319 41.4667 21.4333 41.0667C21.0347 40.6667 20.8347 40.1722 20.8333 39.5833V27.0833L8.75 11.6667C8.22917 10.9722 8.15139 10.2431 8.51667 9.47916C8.88195 8.71527 9.51528 8.33333 10.4167 8.33333H39.5833C40.4861 8.33333 41.1201 8.71527 41.4854 9.47916C41.8507 10.2431 41.7722 10.9722 41.25 11.6667L29.1667 27.0833V39.5833C29.1667 40.1736 28.9667 40.6687 28.5667 41.0687C28.1667 41.4687 27.6722 41.668 27.0833 41.6667H22.9167Z" fill="#3E3C49"/>
</svg>