<svg width="68" height="68" viewBox="0 0 68 68" fill="none" xmlns="http://www.w3.org/2000/svg">
<path d="M22.4733 25.2825C21.6774 25.2825 21.0107 25.0128 20.4732 24.4735C19.9357 23.9341 19.666 23.2674 19.6642 22.4733C19.6623 21.6793 19.932 21.0126 20.4732 20.4732C21.0144 19.9338 21.6811 19.6642 22.4733 19.6642H56.1833C56.9793 19.6642 57.6469 19.9338 58.1863 20.4732C58.7256 21.0126 58.9944 21.6793 58.9925 22.4733C58.9906 23.2674 58.7209 23.935 58.1835 24.4763C57.646 25.0175 56.9793 25.2862 56.1833 25.2825H22.4733ZM22.4733 36.5192C21.6774 36.5192 21.0107 36.2495 20.4732 35.7101C19.9357 35.1708 19.666 34.5041 19.6642 33.71C19.6623 32.9159 19.932 32.2492 20.4732 31.7099C21.0144 31.1705 21.6811 30.9008 22.4733 30.9008H56.1833C56.9793 30.9008 57.6469 31.1705 58.1863 31.7099C58.7256 32.2492 58.9944 32.9159 58.9925 33.71C58.9906 34.5041 58.7209 35.1717 58.1835 35.7129C57.646 36.2542 56.9793 36.5229 56.1833 36.5192H22.4733ZM22.4733 47.7558C21.6774 47.7558 21.0107 47.4862 20.4732 46.9468C19.9357 46.4074 19.666 45.7407 19.6642 44.9467C19.6623 44.1526 19.932 43.4859 20.4732 42.9465C21.0144 42.4072 21.6811 42.1375 22.4733 42.1375H56.1833C56.9793 42.1375 57.6469 42.4072 58.1863 42.9465C58.7256 43.4859 58.9944 44.1526 58.9925 44.9467C58.9906 45.7407 58.7209 46.4084 58.1835 46.9496C57.646 47.4908 56.9793 47.7596 56.1833 47.7558H22.4733ZM11.2367 25.2825C10.4407 25.2825 9.77403 25.0128 9.23654 24.4735C8.69905 23.9341 8.42937 23.2674 8.4275 22.4733C8.42563 21.6793 8.69531 21.0126 9.23654 20.4732C9.77777 19.9338 10.4445 19.6642 11.2367 19.6642C12.0289 19.6642 12.6965 19.9338 13.2396 20.4732C13.7827 21.0126 14.0515 21.6793 14.0458 22.4733C14.0402 23.2674 13.7705 23.935 13.2368 24.4763C12.7031 25.0175 12.0363 25.2862 11.2367 25.2825ZM11.2367 36.5192C10.4407 36.5192 9.77403 36.2495 9.23654 35.7101C8.69905 35.1708 8.42937 34.5041 8.4275 33.71C8.42563 32.9159 8.69531 32.2492 9.23654 31.7099C9.77777 31.1705 10.4445 30.9008 11.2367 30.9008C12.0289 30.9008 12.6965 31.1705 13.2396 31.7099C13.7827 32.2492 14.0515 32.9159 14.0458 33.71C14.0402 34.5041 13.7705 35.1717 13.2368 35.7129C12.7031 36.2542 12.0363 36.5229 11.2367 36.5192ZM11.2367 47.7558C10.4407 47.7558 9.77403 47.4862 9.23654 46.9468C8.69905 46.4074 8.42937 45.7407 8.4275 44.9467C8.42563 44.1526 8.69531 43.4859 9.23654 42.9465C9.77777 42.4072 10.4445 42.1375 11.2367 42.1375C12.0289 42.1375 12.6965 42.4072 13.2396 42.9465C13.7827 43.4859 14.0515 44.1526 14.0458 44.9467C14.0402 45.7407 13.7705 46.4084 13.2368 46.9496C12.7031 47.4908 12.0363 47.7596 11.2367 47.7558Z" fill="#3E3C49"/>
</svg>