<svg width="68" height="68" viewBox="0 0 68 68" fill="none" xmlns="http://www.w3.org/2000/svg">
<path d="M47.7539 11.2362H19.6634C15.9383 11.2362 12.3659 12.716 9.73187 15.35C7.09787 17.984 5.6181 21.5564 5.6181 25.2815V56.181H56.1811C57.6711 56.181 59.1001 55.5891 60.1537 54.5355C61.2073 53.4819 61.7992 52.053 61.7992 50.5629V25.2815C61.7992 21.5564 60.3194 17.984 57.6854 15.35C55.0514 12.716 51.4789 11.2362 47.7539 11.2362ZM28.0905 50.5629H11.2362V25.2815C11.2362 23.0464 12.1241 20.903 13.7045 19.3226C15.2849 17.7422 17.4283 16.8543 19.6634 16.8543C21.8984 16.8543 24.0419 17.7422 25.6223 19.3226C27.2027 20.903 28.0905 23.0464 28.0905 25.2815V50.5629ZM53.372 42.1358H47.7539V36.5177H36.5177V30.8996H53.372V42.1358ZM25.2815 30.8996H14.0453V25.2815H25.2815V30.8996Z" fill="#3E3C49"/>
</svg>