<svg width="68" height="68" viewBox="0 0 68 68" fill="none" xmlns="http://www.w3.org/2000/svg">
<path d="M47.754 11.2362H19.6634C15.9384 11.2362 12.3659 12.716 9.73193 15.35C7.09793 17.984 5.61816 21.5564 5.61816 25.2815V56.181H56.1811C57.6711 56.181 59.1001 55.5891 60.1537 54.5355C61.2073 53.4819 61.7992 52.053 61.7992 50.5629V25.2815C61.7992 21.5564 60.3195 17.984 57.6855 15.35C55.0515 12.716 51.479 11.2362 47.754 11.2362ZM28.0906 50.5629H11.2363V25.2815C11.2363 23.0464 12.1241 20.903 13.7045 19.3226C15.2849 17.7422 17.4284 16.8543 19.6634 16.8543C21.8985 16.8543 24.0419 17.7422 25.6223 19.3226C27.2027 20.903 28.0906 23.0464 28.0906 25.2815V50.5629ZM53.3721 42.1358H47.754V36.5177H36.5177V30.8996H53.3721V42.1358ZM25.2815 30.8996H14.0453V25.2815H25.2815V30.8996Z" fill="#FF7C00"/>
</svg>