<svg width="50" height="50" viewBox="0 0 50 50" fill="none" xmlns="http://www.w3.org/2000/svg">
<path d="M8.33333 37.5C7.74306 37.5 7.24861 37.3 6.85 36.9C6.45139 36.5 6.25139 36.0056 6.25 35.4167C6.24861 34.8278 6.44861 34.3333 6.85 33.9333C7.25139 33.5333 7.74583 33.3333 8.33333 33.3333H16.6667C17.2569 33.3333 17.7521 33.5333 18.1521 33.9333C18.5521 34.3333 18.7514 34.8278 18.75 35.4167C18.7486 36.0056 18.5486 36.5007 18.15 36.9021C17.7514 37.3035 17.2569 37.5028 16.6667 37.5H8.33333ZM8.33333 27.0833C7.74306 27.0833 7.24861 26.8833 6.85 26.4833C6.45139 26.0833 6.25139 25.5889 6.25 25C6.24861 24.4111 6.44861 23.9167 6.85 23.5167C7.25139 23.1167 7.74583 22.9167 8.33333 22.9167H29.1667C29.7569 22.9167 30.2521 23.1167 30.6521 23.5167C31.0521 23.9167 31.2514 24.4111 31.25 25C31.2486 25.5889 31.0486 26.084 30.65 26.4854C30.2514 26.8868 29.7569 27.0861 29.1667 27.0833H8.33333ZM8.33333 16.6667C7.74306 16.6667 7.24861 16.4667 6.85 16.0667C6.45139 15.6667 6.25139 15.1722 6.25 14.5833C6.24861 13.9944 6.44861 13.5 6.85 13.1C7.25139 12.7 7.74583 12.5 8.33333 12.5H41.6667C42.2569 12.5 42.7521 12.7 43.1521 13.1C43.5521 13.5 43.7514 13.9944 43.75 14.5833C43.7486 15.1722 43.5486 15.6674 43.15 16.0687C42.7514 16.4701 42.2569 16.6694 41.6667 16.6667H8.33333Z" fill="#3E3C49"/>
</svg>