<svg width="68" height="68" viewBox="0 0 68 68" fill="none" xmlns="http://www.w3.org/2000/svg">
<path d="M39.3269 22.4724H28.0906V16.8543H39.3269V22.4724ZM56.1812 11.2362V56.1811C56.1812 59.2991 53.6811 61.7992 50.5631 61.7992H16.8544C13.7364 61.7992 11.2363 59.2991 11.2363 56.1811V11.2362C11.2363 9.74619 11.8282 8.31721 12.8818 7.26361C13.9354 6.21001 15.3644 5.6181 16.8544 5.6181H50.5631C52.0531 5.6181 53.4821 6.21001 54.5357 7.26361C55.5893 8.31721 56.1812 9.74619 56.1812 11.2362ZM50.5631 36.5177H16.8544V56.1811H50.5631V36.5177ZM50.5631 11.2362H16.8544V30.8996H50.5631V11.2362ZM39.3269 42.1358H28.0906V47.7539H39.3269V42.1358Z" fill="#FF7C00"/>
</svg>