<svg width="68" height="68" viewBox="0 0 68 68" fill="none" xmlns="http://www.w3.org/2000/svg">
<path d="M2.10669 21.0679H29.495L31.6017 25.2815H4.21348L2.10669 21.0679ZM4.91574 29.495H32.304L34.4108 33.7086H7.02253L4.91574 29.495ZM50.5629 51.9675C52.8944 51.9675 54.7764 50.0854 54.7764 47.7539C54.7764 45.4224 52.8944 43.5403 50.5629 43.5403C48.2313 43.5403 46.3493 45.4224 46.3493 47.7539C46.3493 50.0854 48.2313 51.9675 50.5629 51.9675ZM54.7764 26.686H47.7538V33.7086H60.2822L54.7764 26.686ZM22.4723 51.9675C24.8038 51.9675 26.6859 50.0854 26.6859 47.7539C26.6859 45.4224 24.8038 43.5403 22.4723 43.5403C20.1408 43.5403 18.2587 45.4224 18.2587 47.7539C18.2587 50.0854 20.1408 51.9675 22.4723 51.9675ZM56.181 22.4724L64.6081 33.7086V47.7539H58.99C58.99 52.4169 55.2259 56.181 50.5629 56.181C45.8998 56.181 42.1357 52.4169 42.1357 47.7539H30.8995C30.8995 52.4169 27.1073 56.181 22.4723 56.181C17.8093 56.181 14.0452 52.4169 14.0452 47.7539H8.42706V37.9222H14.0452V42.1358H16.18C17.725 40.4223 19.9723 39.3267 22.4723 39.3267C24.9724 39.3267 27.2196 40.4223 28.7646 42.1358H42.1357V16.8543H8.42706C8.42706 13.7363 10.9271 11.2362 14.0452 11.2362H47.7538V22.4724H56.181Z" fill="#FF7C00"/>
</svg>